<svg width="636" height="495" viewBox="0 0 636 495" fill="none" xmlns="http://www.w3.org/2000/svg">
<path fill-rule="evenodd" clip-rule="evenodd" d="M420.587 464.954C291.069 452.421 183.867 362.113 136.894 247C89.9212 131.887 266.775 33.8284 394.155 28.2104C521.535 22.5924 619.866 130.297 619.866 252.974C619.866 375.651 550.106 477.487 420.587 464.954Z" fill="#FFE5D2"/>
<path fill-rule="evenodd" clip-rule="evenodd" d="M507.434 343.693C507.54 343.634 508.2 344.464 509.176 346.098C510.157 347.726 511.377 350.2 512.511 353.391C514.835 359.752 516.294 369.142 515.429 379.382C514.571 389.621 512.084 398.609 510.166 405.006C508.203 411.407 506.758 415.292 506.509 415.226C506.234 415.154 507.209 411.134 508.82 404.671C510.389 398.209 512.628 389.269 513.467 379.24C514.311 369.214 513.111 360.088 511.182 353.779C509.309 347.439 507.124 343.846 507.434 343.693" fill="white"/>
<path fill-rule="evenodd" clip-rule="evenodd" d="M514.063 292.449C514.186 292.397 514.985 293.789 516.318 296.354C517.649 298.92 519.521 302.659 521.734 307.325C526.126 316.656 532.036 329.719 536.323 344.883C538.431 352.469 539.867 359.844 540.594 366.616C541.327 373.387 541.402 379.539 541.035 384.674C540.68 389.811 539.999 393.933 539.343 396.736C538.694 399.544 538.18 401.057 538.064 401.032C537.701 400.966 539.306 394.783 539.646 384.612C540.07 374.462 538.67 360.36 534.422 345.366C530.184 330.366 524.515 317.297 520.457 307.85C518.414 303.123 516.762 299.296 515.618 296.652C514.501 293.996 513.938 292.502 514.063 292.449" fill="white"/>
<path fill-rule="evenodd" clip-rule="evenodd" d="M268.729 352.594C268.957 352.827 266.726 354.852 263.831 358.612C263.112 359.556 262.332 360.589 261.602 361.769C260.803 362.905 260.108 364.209 259.335 365.556C257.898 368.3 256.533 371.419 255.481 374.815C254.474 378.223 253.887 381.554 253.571 384.607C253.475 386.137 253.335 387.594 253.375 388.959C253.335 390.328 253.418 391.6 253.498 392.763C253.849 397.411 254.607 400.255 254.284 400.338C254.088 400.402 252.839 397.655 252.115 392.898C251.941 391.71 251.775 390.405 251.744 388.992C251.632 387.58 251.712 386.07 251.762 384.48C251.989 381.31 252.544 377.834 253.591 374.297C254.682 370.77 256.152 367.546 257.734 364.748C258.579 363.374 259.354 362.055 260.239 360.917C261.053 359.736 261.925 358.714 262.736 357.795C266.007 354.134 268.601 352.442 268.729 352.594" fill="white"/>
<path fill-rule="evenodd" clip-rule="evenodd" d="M273.965 369C274.13 369.251 272.887 370.156 271.263 371.886C270.441 372.741 269.575 373.849 268.723 375.132C267.907 376.438 267.125 377.935 266.511 379.587C265.924 381.246 265.57 382.884 265.369 384.393C265.207 385.903 265.171 387.282 265.265 388.438C265.423 390.752 265.817 392.195 265.523 392.296C265.313 392.381 264.428 391.06 263.887 388.614C263.605 387.395 263.489 385.901 263.562 384.247C263.676 382.598 264.008 380.79 264.651 378.976C265.32 377.171 266.231 375.553 267.208 374.187C268.221 372.84 269.28 371.734 270.291 370.939C272.301 369.329 273.853 368.808 273.965 369" fill="white"/>
<path fill-rule="evenodd" clip-rule="evenodd" d="M201.281 216.107C201.383 216.022 202.263 216.847 203.774 218.419C204.541 219.197 205.448 220.177 206.407 221.386C207.376 222.583 208.542 223.913 209.636 225.512C210.2 226.301 210.793 227.127 211.408 227.988C212.018 228.854 212.571 229.803 213.187 230.761C214.447 232.663 215.576 234.81 216.805 237.051C219.124 241.595 221.342 246.753 223.109 252.343C224.819 257.951 225.904 263.429 226.553 268.442C226.8 270.958 227.078 273.346 227.107 275.593C227.137 276.716 227.214 277.798 227.197 278.841C227.173 279.882 227.147 280.881 227.124 281.835C227.118 283.745 226.899 285.462 226.77 286.971C226.654 288.481 226.454 289.771 226.253 290.82C225.884 292.923 225.616 294.07 225.482 294.052C225.135 294.009 225.788 289.35 225.734 281.821C225.715 280.88 225.698 279.896 225.679 278.869C225.656 277.843 225.542 276.777 225.477 275.675C225.38 273.466 225.045 271.123 224.754 268.656C224.017 263.741 222.9 258.379 221.222 252.875C219.487 247.388 217.363 242.308 215.174 237.8C214.01 235.579 212.952 233.44 211.773 231.535C211.196 230.575 210.684 229.623 210.118 228.749C209.547 227.879 209 227.042 208.477 226.244C204.223 219.895 201.013 216.324 201.281 216.107" fill="white"/>
<path fill-rule="evenodd" clip-rule="evenodd" d="M223.557 224.878C223.725 224.736 225.984 226.748 228.858 230.624C230.304 232.554 231.827 234.986 233.311 237.79C234.751 240.614 236.126 243.82 237.222 247.295C238.286 250.779 238.962 254.183 239.366 257.298C239.721 260.42 239.831 263.249 239.718 265.617C239.519 270.356 238.77 273.214 238.55 273.181C238.233 273.144 238.487 270.251 238.326 265.616C238.262 263.299 238.011 260.548 237.569 257.523C237.078 254.503 236.368 251.211 235.337 247.826C234.27 244.451 232.986 241.32 231.674 238.532C230.318 235.761 228.958 233.324 227.689 231.344C225.177 227.37 223.314 225.073 223.557 224.878" fill="white"/>
<path fill-rule="evenodd" clip-rule="evenodd" d="M145.554 378.076L143.841 374.748L96.1677 409.414L116.966 441.479L164.422 403.4L145.554 378.076Z" fill="#FF7B5B"/>
<path fill-rule="evenodd" clip-rule="evenodd" d="M98.1655 410.155L116.437 440.225L117.605 439.729L101.334 411.613L98.1655 410.155Z" fill="#D7D4D4"/>
<path fill-rule="evenodd" clip-rule="evenodd" d="M144.612 377.417L98.1655 410.154C98.1655 410.154 98.3602 410.857 99.5128 411.291C100.667 411.724 101.334 411.614 101.334 411.614L150.165 379.808C150.165 379.808 147.35 379.186 146.329 378.461C145.306 377.733 144.612 377.417 144.612 377.417" fill="#F5F3F3"/>
<path fill-rule="evenodd" clip-rule="evenodd" d="M151.359 378.525L100.462 410.878L116.992 440.693L119.655 444.822L170.553 408.972C170.553 408.972 165.193 401.358 161.974 396.76C158.755 392.163 152.437 381.32 152.093 380.625C151.748 379.93 151.359 378.525 151.359 378.525" fill="#FF7B5B"/>
<path fill-rule="evenodd" clip-rule="evenodd" d="M571.089 155.165L572.526 152.371L612.56 181.481L595.094 208.408L555.244 176.431L571.089 155.165Z" fill="#775298"/>
<path fill-rule="evenodd" clip-rule="evenodd" d="M610.882 182.103L595.54 207.354L594.558 206.938L608.222 183.328L610.882 182.103Z" fill="#D7D4D4"/>
<path fill-rule="evenodd" clip-rule="evenodd" d="M571.88 154.611L610.883 182.102C610.883 182.102 610.718 182.692 609.751 183.056C608.782 183.42 608.221 183.327 608.221 183.327L567.217 156.62C567.217 156.62 569.58 156.098 570.438 155.487C571.296 154.877 571.88 154.611 571.88 154.611" fill="#F5F3F3"/>
<path fill-rule="evenodd" clip-rule="evenodd" d="M566.214 155.543L608.954 182.71L595.074 207.747L592.837 211.214L550.095 181.109C550.095 181.109 554.598 174.714 557.3 170.854C560.004 166.994 565.309 157.888 565.597 157.305C565.886 156.723 566.214 155.543 566.214 155.543" fill="#775298"/>
<path fill-rule="evenodd" clip-rule="evenodd" d="M88.6371 102.772C88.6371 102.772 85.6146 104.762 87.1251 108.082C88.6371 111.401 95.2636 121.248 104.215 120.915C104.582 120.903 92.9383 102.772 92.9383 102.772H88.6371Z" fill="#FF7B5B"/>
<path fill-rule="evenodd" clip-rule="evenodd" d="M74.9433 284.293C74.9433 284.293 63.7494 274.777 60.1656 276.481C55.7871 278.565 30.7261 301.933 31.7055 312.941C32.1078 317.45 37.6232 313.587 47.4511 303.885C57.2819 294.185 69.66 298.342 69.66 298.342L74.9433 284.293Z" fill="#775298"/>
<path fill-rule="evenodd" clip-rule="evenodd" d="M102.14 300.343L88.6266 292.627C88.6266 292.627 53.5987 323.88 59.0711 328.046C63.2219 331.206 65.6617 328.372 75.4911 318.67C85.3191 308.971 97.7715 314.548 97.7715 314.548L102.14 300.343Z" fill="#775298"/>
<path fill-rule="evenodd" clip-rule="evenodd" d="M184.688 197.525L187.222 231.771L130.969 217.824L184.688 197.525Z" fill="#F3A683"/>
<path fill-rule="evenodd" clip-rule="evenodd" d="M130.969 219.002C130.969 219.002 180.175 221.954 186.727 219.873C186.727 219.873 196.343 309.776 179.233 319.475C162.121 329.177 123.723 314.972 123.723 314.972L134.091 295.57L156.444 294.185V259.54L154.84 259.886L130.969 219.002Z" fill="#112129"/>
<path fill-rule="evenodd" clip-rule="evenodd" d="M69.2888 280.326C69.2888 280.326 56.9123 285.177 60.917 296.957C60.917 296.957 103.166 328.485 123.723 321.208C135.241 317.133 147.613 286.035 156.269 259.466L186.727 219.873C186.727 219.873 172.362 220.557 167.57 220.539C158.411 220.507 130.97 219.002 130.97 219.002C130.97 219.002 116.636 290.375 111.529 292.106C106.421 293.837 69.2888 280.326 69.2888 280.326" fill="#22343D"/>
<path fill-rule="evenodd" clip-rule="evenodd" d="M142.436 129.486C142.436 129.486 171.925 103.155 177.021 96.2242C182.117 89.2952 193.042 66.0827 206.508 56.382L199.956 43.2162C199.956 43.2162 203.962 41.1382 206.508 46.6801C206.508 46.6801 215.972 28.666 218.157 29.0107C220.344 29.3569 213.79 42.8701 213.79 42.8701C213.79 42.8701 222.894 30.3965 225.441 30.744C227.987 31.0901 218.887 44.7656 218.887 44.7656C218.887 44.7656 229.079 33.5156 230.537 34.9014C231.993 36.2872 222.527 44.7656 222.527 44.7656C222.527 44.7656 232.72 39.1965 233.813 41.0319C234.905 42.8701 223.62 47.7198 223.62 47.7198C223.62 47.7198 222.527 55.6885 215.611 59.1523C215.611 59.1523 201.916 94.3656 189.538 105.798L149.775 145.127L142.436 129.486Z" fill="#FFC6B2"/>
<path fill-rule="evenodd" clip-rule="evenodd" d="M107.234 143.133C107.234 143.133 79.292 170.95 71.964 175.734C64.6346 180.517 40.1434 190.697 29.8258 203.424L16.0532 197.065C16.0532 197.065 13.8325 200.856 19.6327 203.332C19.6327 203.332 0.613979 212.171 0.959046 214.255C1.30125 216.337 15.5607 210.227 15.5607 210.227C15.5607 210.227 2.36938 218.773 2.71015 221.2C3.05092 223.627 17.5036 215.094 17.5036 215.094C17.5036 215.094 5.58809 224.688 7.03136 226.086C8.47176 227.486 17.4707 218.559 17.4707 218.559C17.4707 218.559 11.523 228.207 13.4444 229.263C15.3631 230.319 20.5648 219.625 20.5648 219.625C20.5648 219.625 28.9467 218.663 32.6536 212.111C32.6536 212.111 67.7001 198.84 79.8304 187.168L123.443 157.758L107.234 143.133Z" fill="#FFC6B2"/>
<path fill-rule="evenodd" clip-rule="evenodd" d="M117.709 132.046L103.577 145.212L107.161 160.054C107.161 160.054 121.084 191.865 123.188 199.625C126.46 211.693 121.168 230.092 121.168 230.092C121.168 230.092 144.772 228.227 166.249 227.535C187.725 226.841 194.75 220.257 194.75 220.257C194.75 220.257 176.13 161.235 163.273 144.737C150.416 128.241 145.74 123.076 145.74 123.076L126.81 127.014L117.709 132.046Z" fill="white"/>
<path fill-rule="evenodd" clip-rule="evenodd" d="M159.184 142.791L173.909 133.837C173.909 133.837 176.158 124.244 158.401 112.929L137.578 125.347L159.184 142.791Z" fill="white"/>
<path fill-rule="evenodd" clip-rule="evenodd" d="M106.555 144.171C98.4824 145.249 83.7305 164.72 82.0853 164.683C82.0853 164.683 92.4674 180.807 100.692 181.33C100.692 181.33 136.884 140.123 106.555 144.171" fill="white"/>
<path fill-rule="evenodd" clip-rule="evenodd" d="M135.051 131.502C135.051 131.502 123.317 123.159 123.724 119.833C123.827 118.995 125.453 117.635 125.876 116.427C128.151 109.932 117.182 93.1944 110.442 89.6665C105.14 86.8922 107.464 86.6469 96.306 92.9573C85.1479 99.2676 91.5051 110.18 96.4878 115.824C101.199 121.158 106.594 123.444 111.447 123.829L118.349 138.418L135.051 131.502Z" fill="#FFC6B2"/>
<path fill-rule="evenodd" clip-rule="evenodd" d="M113.878 143.084C111.659 137.903 115.861 131.378 123.265 128.504C130.672 125.629 138.471 127.498 140.695 132.676C142.913 137.856 135.462 145.642 131.302 147.256C127.143 148.871 116.096 148.262 113.878 143.084" fill="#FFC6B2"/>
<path fill-rule="evenodd" clip-rule="evenodd" d="M96.4884 115.824C96.4884 115.824 92.6826 115.623 92.2602 118.037C91.8364 120.451 99.236 120.451 101.985 118.64L96.4884 115.824Z" fill="#FFC6B2"/>
<path fill-rule="evenodd" clip-rule="evenodd" d="M98.3914 118.037C97.6684 113.675 92.7845 110.432 93.0279 106.182C95.3689 106.2 96.8723 103.44 95.807 101.082C95.3875 100.155 94.6773 99.3619 94.2234 98.4476C93.771 97.5346 93.6507 96.3382 94.3451 95.8218C94.6744 95.5779 95.1197 95.5356 95.5464 95.4948C99.0171 95.1555 104.963 96.1461 108.158 95.0192C111.199 93.9468 114.458 91.8606 114.141 88.315C113.865 85.2273 111 82.7241 108.368 80.8328C106.861 79.7481 102.552 76.9125 100.927 77.17C98.4458 77.5625 97.8445 80.7129 97.6655 83.3496C95.9301 81.7771 93.3701 82.0292 91.8609 83.3087C90.3518 84.5882 89.6373 86.6213 88.9801 88.5835C88.3215 90.547 87.6242 92.5855 86.1351 93.8896C84.7477 95.105 82.5527 96.0248 82.8405 98.0919C83.1827 100.556 86.5647 101.432 88.1282 103.533C87.743 103.018 87.4166 106.307 87.6385 106.865C88.3057 108.545 89.9709 109.657 91.1751 110.942C93.7395 113.681 94.9937 116.438 98.3914 118.037" fill="#FF7B5B"/>
<path fill-rule="evenodd" clip-rule="evenodd" d="M119.652 108.063L110.981 112.331C110.981 112.331 121.396 119.526 119.652 108.063" fill="white"/>
<path fill-rule="evenodd" clip-rule="evenodd" d="M107.723 109.755C108.196 110.611 107.495 111.848 106.156 112.519C104.817 113.189 103.348 113.039 102.874 112.183C102.402 111.328 103.102 110.092 104.441 109.42C105.781 108.75 107.249 108.899 107.723 109.755" fill="#FFB2A0"/>
<path fill-rule="evenodd" clip-rule="evenodd" d="M120.384 101.524C120.858 102.38 120.156 103.617 118.817 104.288C117.479 104.958 116.01 104.808 115.536 103.952C115.063 103.097 115.763 101.859 117.102 101.189C118.442 100.519 119.91 100.668 120.384 101.524" fill="#FFB2A0"/>
<path fill-rule="evenodd" clip-rule="evenodd" d="M113.599 107.761C113.559 107.713 113.721 107.51 114.096 107.252C114.454 106.989 115.076 106.706 115.539 106.232C115.997 105.772 116.162 104.815 115.46 104.68C114.731 104.444 113.904 105.24 112.955 105.996C112.72 106.181 112.488 106.365 112.257 106.546C112.042 106.734 111.59 107.01 111.12 106.954C110.225 106.816 109.845 106.248 109.501 105.868C108.814 105.028 108.39 104.15 108.155 103.389C107.69 101.852 107.899 100.86 108.01 100.868C108.167 100.862 108.218 101.815 108.809 103.167C109.107 103.839 109.553 104.602 110.201 105.323C110.518 105.688 110.916 106.029 111.199 106.04C111.318 106.045 111.411 106.007 111.634 105.828C111.862 105.647 112.091 105.463 112.323 105.278C112.801 104.91 113.215 104.538 113.762 104.192C114.293 103.851 115.051 103.636 115.729 103.855C116.454 104.036 116.879 104.84 116.753 105.399C116.671 105.969 116.374 106.388 116.036 106.695C115.321 107.263 114.683 107.401 114.28 107.573C113.868 107.721 113.642 107.814 113.599 107.761" fill="#FF7B5B"/>
<path fill-rule="evenodd" clip-rule="evenodd" d="M111.448 123.829C111.448 123.829 116.979 123.859 119.98 122.1C119.98 122.1 117.441 125.068 112.361 125.836L111.448 123.829Z" fill="#FFA192"/>
<path fill-rule="evenodd" clip-rule="evenodd" d="M113.846 100.223C113.796 100.484 113.023 100.564 112.205 100.907C111.376 101.226 110.778 101.699 110.547 101.552C110.311 101.433 110.702 100.493 111.822 100.045C112.94 99.5938 113.919 99.9781 113.846 100.223" fill="#22343D"/>
<path fill-rule="evenodd" clip-rule="evenodd" d="M103.007 106.99C102.798 106.843 103.126 105.995 103.922 105.146C104.728 104.28 105.758 103.991 105.866 104.233C105.981 104.469 105.354 105.018 104.648 105.78C103.931 106.539 103.233 107.151 103.007 106.99" fill="#22343D"/>
<path fill-rule="evenodd" clip-rule="evenodd" d="M98.8052 105.682C98.357 105.366 98.0077 104.013 99.723 102.19C101.454 100.325 103.388 100.654 103.62 101.172C103.87 101.68 103.225 102.403 101.706 104.043C100.164 105.677 99.2906 106.028 98.8052 105.682" fill="#FF7B5B"/>
<path fill-rule="evenodd" clip-rule="evenodd" d="M107.911 98.5002C107.663 98.0587 107.936 96.7737 110.167 95.8784C112.43 94.9532 113.937 95.9738 113.916 96.5039C113.911 97.0312 113.06 97.4005 111.072 98.2154C109.07 99.0152 108.178 98.9812 107.911 98.5002" fill="#FF7B5B"/>
<path fill-rule="evenodd" clip-rule="evenodd" d="M583.719 111.282C583.865 111.42 581.462 113.992 576.477 116.794C571.553 119.593 563.805 122.367 554.894 122.43C545.982 122.493 538.192 119.827 533.225 117.098C528.198 114.367 525.755 111.827 525.898 111.687C526.106 111.437 528.838 113.58 533.872 115.925C538.857 118.279 546.372 120.616 554.878 120.558C563.387 120.496 570.863 118.054 575.812 115.63C580.808 113.214 583.508 111.034 583.719 111.282" fill="#775298"/>
<path fill-rule="evenodd" clip-rule="evenodd" d="M529.352 107.396C529.216 107.681 526.556 106.63 522.074 105.679C519.84 105.177 517.13 104.79 514.112 104.433C511.082 104.115 507.733 103.861 504.196 103.621C500.658 103.386 497.272 103.114 494.197 102.752C491.121 102.364 488.358 101.902 486.081 101.316C481.511 100.181 478.922 98.8371 479.012 98.6477C479.131 98.3616 481.853 99.2459 486.379 100.021C488.637 100.431 491.362 100.749 494.396 101.036C497.437 101.301 500.796 101.517 504.338 101.755C507.883 101.994 511.275 102.304 514.348 102.723C517.419 103.183 520.174 103.717 522.428 104.398C526.954 105.713 529.454 107.217 529.352 107.396" fill="#775298"/>
<mask id="mask0_0_574" style="mask-type:alpha" maskUnits="userSpaceOnUse" x="457" y="35" width="179" height="84">
<path fill-rule="evenodd" clip-rule="evenodd" d="M457.486 35.2054H636V118.441H457.486V35.2054Z" fill="white"/>
</mask>
<g mask="url(#mask0_0_574)">
<path fill-rule="evenodd" clip-rule="evenodd" d="M475.442 52.0647C483.939 50.3491 492.741 51.8262 501.308 53.1848C509.876 54.5433 518.77 55.7683 527.146 53.58C542.269 49.6297 553.749 35.089 569.432 35.2061C575.89 35.2538 581.976 37.8783 588.268 39.2668C596.079 40.9919 604.218 40.8066 612.132 42.037C620.047 43.2675 628.222 46.2967 632.695 52.6316C638.002 60.1492 636.547 70.7533 630.978 78.0979C625.41 85.4439 616.493 89.916 607.356 92.4505C600.983 94.2179 594.194 95.2399 588.678 98.7568C583.1 102.315 579.458 108.04 574.26 112.086C561.218 122.236 540.92 119.327 527.448 109.699C524.064 107.28 520.927 104.473 517.124 102.703C501.656 95.4974 479.41 105.036 466.088 91.9259C452.56 78.6116 454.488 56.2943 475.442 52.0647" fill="#775298"/>
</g>
<path fill-rule="evenodd" clip-rule="evenodd" d="M471.197 309.916C471.197 309.916 485.369 338.824 487.027 333.472C488.681 328.117 488.134 315.26 487.246 313.425C486.354 311.589 480.561 303.48 480.561 303.48L471.197 309.916Z" fill="#FFB2A0"/>
<path fill-rule="evenodd" clip-rule="evenodd" d="M573.674 76.1511C574.985 77.7495 574.109 76.0325 575.594 78.3381C581.765 78.1337 585.907 73.1642 585.907 73.1642C585.907 73.1642 595.702 73.4108 595.589 71.7457C595.477 70.0778 586.199 70.7005 586.199 70.7005C586.199 70.7005 596.014 67.7668 595.476 66.3019C594.941 64.8385 583.609 69.5069 583.609 69.5069C583.609 69.5069 595.044 62.7523 593.354 61.669C591.666 60.5884 580.664 66.4845 580.664 66.4845C580.664 66.4845 590.226 59.0105 588.792 58.0471C587.362 57.0837 574.099 66.8116 574.099 66.8116C574.292 62.026 570.686 62.1936 570.686 62.1936L570.835 73.8782C570.835 73.8782 573.07 75.4153 573.674 76.1511" fill="#FFC6B2"/>
<path fill-rule="evenodd" clip-rule="evenodd" d="M428.483 23.2669C426.387 23.6349 428.012 22.9413 425.292 23.7316C420.823 19.6764 421.416 13.3033 421.416 13.3033C421.416 13.3033 413.922 7.29956 415.164 6.12633C416.414 4.95037 422.916 11.2785 422.916 11.2785C422.916 11.2785 417.626 2.88189 419.049 2.12699C420.471 1.37208 425.69 12.0225 425.69 12.0225C425.69 12.0225 421.85 -0.253542 423.868 0.00399624C425.884 0.261535 429.999 11.6205 429.999 11.6205C429.999 11.6205 428.064 -0.00826749 429.803 0.175689C431.546 0.358282 434.68 16.0136 434.68 16.0136C437.873 12.3127 440.452 14.7178 440.452 14.7178L432.358 23.1893C432.358 23.1893 429.447 23.0993 428.483 23.2669" fill="#FFC6B2"/>
<path fill-rule="evenodd" clip-rule="evenodd" d="M479.323 72.0751C476.613 71.6513 470.059 75.7965 466.78 82.5524C464.945 86.3337 463.682 90.175 465.788 96.3246C466.78 99.2175 468.857 99.5799 469.321 100.876C469.906 102.516 467.966 107.688 467.966 107.688L475.702 110.661C476.205 107.108 476.775 103.534 480.579 101.992C482.002 101.414 483.526 101.049 484.869 100.316C488.492 98.3386 490.428 94.0136 491.917 90.4721C493.028 87.8272 486.119 73.1352 479.323 72.0751" fill="#FFC6B2"/>
<path fill-rule="evenodd" clip-rule="evenodd" d="M470.114 172.478L457.153 167.529C457.153 167.529 418.689 235.412 418.85 254.246C419.009 273.079 471.678 310.787 471.678 310.787L480.561 303.481C480.561 303.481 464.3 276.497 455.607 266.983C446.913 257.466 470.114 172.478 470.114 172.478" fill="#FFB2A0"/>
<path fill-rule="evenodd" clip-rule="evenodd" d="M534.466 249.807C534.466 249.807 563.032 236.908 557.292 235.769C551.552 234.635 538.127 236.198 536.279 237.19C534.428 238.183 526.406 244.336 526.406 244.336L534.466 249.807Z" fill="#FFC6B2"/>
<path fill-rule="evenodd" clip-rule="evenodd" d="M482.845 171.89L463.184 178.697C463.184 178.697 443.516 261.022 451.025 273.947C458.53 286.877 479.617 278.321 509.647 262.723L534.801 249.655L526.405 244.337C526.405 244.337 497.135 249.796 488.915 255.238C488.915 255.238 493.204 243.671 498.925 227.342C504.643 211.012 508.588 194.343 482.845 171.89" fill="#FFC6B2"/>
<path fill-rule="evenodd" clip-rule="evenodd" d="M458.644 115.804C458.644 110.334 460.494 106.379 466.242 106.379C471.989 106.379 479.934 108.296 479.934 113.767C479.934 119.239 475.405 128.122 469.655 128.122C463.908 128.122 458.644 121.276 458.644 115.804" fill="#FFC6B2"/>
<path fill-rule="evenodd" clip-rule="evenodd" d="M463.183 105.595C463.183 105.595 445.311 87.1883 441.736 69.1565C438.159 51.1274 432.085 21.8702 432.085 21.8702L425.293 23.7316C425.293 23.7316 422.074 63.7155 425.293 69.8378C428.509 75.9615 444.229 116.729 449.015 127.435L463.183 105.595Z" fill="#FFC6B2"/>
<path fill-rule="evenodd" clip-rule="evenodd" d="M482.384 119.94C482.384 119.94 483.758 114.215 506.358 106.432C528.958 98.6518 571.594 73.4308 571.594 73.4308L575.848 78.0624C575.848 78.0624 552.682 103.529 539.204 107.995C525.726 112.464 497.1 130.076 494.155 131.485C489.7 133.617 489.755 136.3 482.384 119.94" fill="#FFC6B2"/>
<path fill-rule="evenodd" clip-rule="evenodd" d="M463.183 105.595C463.183 105.595 445.025 111.195 445.025 137.49C445.025 137.49 445.036 173.503 449.316 180.055C449.316 180.055 456.273 181.751 464.947 180.055C474.042 178.275 482.845 171.89 482.845 171.89L497.129 131.08L495.42 111.96L475.999 108.391C475.999 108.391 481.57 133.168 461.413 122.516C457.496 120.446 467.176 106.389 467.176 106.389L463.183 105.595Z" fill="#22343D"/>
<path fill-rule="evenodd" clip-rule="evenodd" d="M447.819 126.98L438.872 109.24C438.872 109.24 440.154 98.4781 456.58 94.6218C456.58 94.6218 458.241 100.046 460.062 102.119C461.882 104.19 467.183 106.395 467.183 106.395L447.819 126.98Z" fill="#22343D"/>
<path fill-rule="evenodd" clip-rule="evenodd" d="M481.645 134.111L510.097 128.561C510.097 128.561 515.044 118.807 503.315 107.204C503.315 107.204 481.121 108.48 478.249 108.707C475.421 108.931 477.363 111.004 477.363 111.004L481.645 134.111Z" fill="#22343D"/>
<path fill-rule="evenodd" clip-rule="evenodd" d="M449.27 171.283C449.27 171.283 422.36 218.633 417.914 227.094C417.914 227.094 497.306 261.801 529.535 220.024C529.535 220.024 511.202 183.097 482.861 169.039L470.635 165.554L449.749 171.055" fill="#22343D"/>
<path fill-rule="evenodd" clip-rule="evenodd" d="M490.875 90.0244C490.875 90.0244 493.941 87.107 495.827 89.1264C497.712 91.1458 488.99 94.0632 488.99 94.0632L490.875 90.0244Z" fill="#FFC6B2"/>
<path fill-rule="evenodd" clip-rule="evenodd" d="M546.948 50.2355C546.978 50.3364 545.794 50.8242 543.533 51.3352C541.278 51.8516 537.931 52.3204 533.775 52.4008C529.621 52.4798 524.681 52.1282 519.275 51.4306C513.864 50.7479 507.987 49.745 501.803 49.1032C495.629 48.475 489.692 48.3605 484.435 49.1686C479.176 49.963 474.624 51.6022 471.145 53.5168C467.665 55.4462 465.244 57.5869 463.758 59.2071C462.263 60.8287 461.59 61.8643 461.438 61.7771C461.355 61.7362 461.805 60.5698 463.159 58.752C464.505 56.9397 466.881 54.5483 470.423 52.3858C473.962 50.2369 478.667 48.3905 484.134 47.4666C489.608 46.5291 495.73 46.6014 502.012 47.2418C508.299 47.8945 514.183 48.9546 519.531 49.7232C524.878 50.5067 529.71 50.9863 533.779 51.0763C541.936 51.2929 546.873 49.9153 546.948 50.2355" fill="#775298"/>
<path fill-rule="evenodd" clip-rule="evenodd" d="M475.265 88.3681C475.256 88.4826 474.383 88.563 473.05 88.1419C472.72 88.0315 472.331 87.8871 471.969 87.571C471.79 87.4129 471.624 87.2031 471.522 86.951C471.376 86.5981 471.387 86.1974 471.532 85.8922C471.575 85.8309 471.572 85.6851 471.657 85.6824L471.916 85.6742C472.082 85.6524 472.278 85.7042 472.47 85.7382C472.822 85.8023 472.935 85.7927 473.186 85.8091C473.625 85.8186 474.081 85.775 474.536 85.6796C476.397 85.3063 477.643 84.0172 478.201 82.9571C478.787 81.8901 478.839 81.0875 478.995 81.0971C479.105 81.0835 479.322 81.9365 478.839 83.2242C478.592 83.8551 478.164 84.5786 477.473 85.2136C476.785 85.8472 475.833 86.3678 474.752 86.5926C474.212 86.7071 473.67 86.7507 473.147 86.7248C472.919 86.7139 472.561 86.6703 472.457 86.6485C472.361 86.6335 472.372 86.613 472.354 86.6239C472.342 86.6348 472.337 86.6526 472.338 86.6784C472.377 86.8011 472.447 86.9183 472.546 87.0232C472.745 87.2371 473.034 87.3966 473.316 87.5301C474.469 88.0683 475.286 88.2278 475.265 88.3681" fill="#FF7B5B"/>
<path fill-rule="evenodd" clip-rule="evenodd" d="M468.882 88.6836L479.363 92.6134C479.363 92.6134 470.152 98.6581 468.882 88.6836" fill="white"/>
<path fill-rule="evenodd" clip-rule="evenodd" d="M483.839 90.5746C483.467 91.2477 482.313 91.3649 481.26 90.8376C480.208 90.3116 479.657 89.3387 480.027 88.6669C480.4 87.9937 481.555 87.8752 482.608 88.4025C483.66 88.9299 484.211 89.9014 483.839 90.5746" fill="#FFB2A0"/>
<path fill-rule="evenodd" clip-rule="evenodd" d="M472.142 84.6721C471.824 85.3698 470.683 85.5715 469.592 85.1218C468.501 84.6721 467.872 83.7428 468.19 83.0452C468.506 82.3475 469.649 82.1458 470.74 82.5955C471.831 83.0452 472.46 83.9745 472.142 84.6721" fill="#FFB2A0"/>
<path fill-rule="evenodd" clip-rule="evenodd" d="M468.259 99.6226C468.259 99.6226 471.933 102.551 475.766 101.608C475.766 101.608 474.445 103.494 469.357 102.802C469.357 102.802 469.78 100.724 468.259 99.6226" fill="#FFA192"/>
<path fill-rule="evenodd" clip-rule="evenodd" d="M482.833 84.3102C482.833 84.7463 482.461 85.1006 482.003 85.1006C481.545 85.1006 481.172 84.7463 481.172 84.3102C481.172 83.8742 481.545 83.5199 482.003 83.5199C482.461 83.5199 482.833 83.8742 482.833 84.3102" fill="#22343D"/>
<path fill-rule="evenodd" clip-rule="evenodd" d="M476.038 81.9808C476.038 82.4168 475.666 82.7711 475.207 82.7711C474.749 82.7711 474.378 82.4168 474.378 81.9808C474.378 81.5447 474.749 81.1904 475.207 81.1904C475.666 81.1904 476.038 81.5447 476.038 81.9808" fill="#22343D"/>
<path fill-rule="evenodd" clip-rule="evenodd" d="M485.501 82.2051C485.245 82.3086 484.75 81.7377 483.999 81.2757C483.265 80.7934 482.52 80.5767 482.522 80.3124C482.497 80.0589 483.537 79.8532 484.546 80.4977C485.557 81.1381 485.758 82.1288 485.501 82.2051" fill="#775298"/>
<path fill-rule="evenodd" clip-rule="evenodd" d="M473.525 78.3707C473.508 78.124 474.4 77.8134 475.594 77.8433C476.81 77.8679 477.708 78.4293 477.583 78.6636C477.469 78.9007 476.622 78.7986 475.556 78.7795C474.483 78.7495 473.543 78.6391 473.525 78.3707" fill="#775298"/>
<path fill-rule="evenodd" clip-rule="evenodd" d="M477.268 321.662C477.268 321.662 481.628 336.389 486.129 335.183C490.631 333.979 487.246 313.425 487.246 313.425L482.754 306.669C482.754 306.669 486.974 341.074 477.268 321.662" fill="#22343D"/>
<path fill-rule="evenodd" clip-rule="evenodd" d="M532.244 240.014C532.244 240.014 535.414 236.722 539.257 236.174C543.102 235.625 556.84 234.07 558.857 235.808C560.876 237.545 547.722 243.37 547.722 243.37C547.722 243.37 552.305 240.591 550.402 239.558C547.039 237.728 532.244 240.014 532.244 240.014" fill="#22343D"/>
<path fill-rule="evenodd" clip-rule="evenodd" d="M526.793 243.957L531.094 252.268L533.441 251.028L527.705 242.841L526.793 243.957Z" fill="#22343D"/>
<path fill-rule="evenodd" clip-rule="evenodd" d="M478.697 300.149L468.139 309.205L471.267 311.686L480.13 302.506L478.697 300.149Z" fill="#22343D"/>
<path fill-rule="evenodd" clip-rule="evenodd" d="M257.962 209.993C254.96 202.902 253.806 195.007 249.325 188.661C242.878 179.53 230.494 174.999 225.262 165.188C223.04 161.021 222.343 156.255 222.32 151.582C222.277 142.338 225.185 132.511 232.688 126.636C241.309 119.886 254.244 119.98 264.341 124.515C274.435 129.05 282.148 137.281 288.706 145.879C295.265 154.476 301.007 163.703 308.644 171.451C314.307 177.196 321.023 182.15 325.289 188.899C336.982 207.403 324.951 230.814 304.307 237.492C286.167 243.358 264.238 224.818 257.962 209.993" fill="#22343D"/>
<path fill-rule="evenodd" clip-rule="evenodd" d="M232.12 340.493C233.916 341.898 231.957 340.925 234.569 342.544C233.986 348.753 227.951 352.665 227.951 352.665C227.951 352.665 227.696 362.551 225.757 362.348C223.814 362.148 225.059 352.829 225.059 352.829C225.059 352.829 221.085 362.566 219.404 361.946C217.725 361.329 223.807 350.155 223.807 350.155C223.807 350.155 215.282 361.322 214.111 359.562C212.941 357.802 220.443 347.027 220.443 347.027C220.443 347.027 211.18 356.268 210.133 354.772C209.088 353.28 221.187 340.427 221.187 340.427C215.587 340.369 215.984 336.741 215.984 336.741L229.623 337.511C229.623 337.511 231.294 339.844 232.12 340.493" fill="#FFC6B2"/>
<path fill-rule="evenodd" clip-rule="evenodd" d="M362.421 154.045C364.755 154.435 362.944 153.699 365.972 154.537C370.946 150.236 370.286 143.479 370.286 143.479C370.286 143.479 378.628 137.113 377.245 135.869C375.853 134.622 368.617 141.33 368.617 141.33C368.617 141.33 374.505 132.428 372.921 131.627C371.34 130.827 365.531 142.121 365.531 142.121C365.531 142.121 369.805 129.103 367.557 129.376C365.315 129.65 360.735 141.694 360.735 141.694C360.735 141.694 362.888 129.364 360.951 129.558C359.012 129.752 355.877 145.906 355.877 145.906C351.309 142.369 348.112 144.633 348.112 144.633L358.109 153.962C358.109 153.962 361.349 153.868 362.421 154.045" fill="#FFC6B2"/>
<path fill-rule="evenodd" clip-rule="evenodd" d="M305.321 208.035C309.541 207.409 322.408 215.345 319.134 231.461C318.86 232.814 317.003 235.792 316.541 237.024C315.956 238.584 320.508 244.295 320.508 244.295L308.757 247.868C308.256 244.49 309.1 239.553 305.302 238.086C303.882 237.537 302.361 237.189 301.021 236.493C297.403 234.612 295.472 230.498 293.985 227.131C292.876 224.615 292.031 221.908 292.062 219.178C292.14 212.302 298.538 209.044 305.321 208.035" fill="#FFC6B2"/>
<path fill-rule="evenodd" clip-rule="evenodd" d="M328.852 252.173C328.852 246.372 326.919 244.158 320.522 244.158C314.125 244.158 305.68 246.372 305.68 252.173C305.68 257.975 310.197 265.235 316.597 265.235C322.993 265.235 328.852 257.975 328.852 252.173" fill="#FFC6B2"/>
<path fill-rule="evenodd" clip-rule="evenodd" d="M323.8 241.346C323.8 241.346 343.692 221.828 347.671 202.707C351.652 183.588 358.413 152.563 358.413 152.563L365.973 154.537C365.973 154.537 369.555 196.936 365.973 203.429C362.393 209.924 342.1 255.017 342.498 266.56L323.8 241.346Z" fill="#FFC6B2"/>
<path fill-rule="evenodd" clip-rule="evenodd" d="M288.341 250.797C288.341 250.797 281.577 251.879 271.233 274.247C260.888 296.613 229.059 338.252 229.059 338.252L234.232 342.786C234.232 342.786 265.265 320.782 271.233 307.435C277.199 294.088 284.759 277.494 288.341 278.213C291.921 278.937 307.041 259.093 288.341 250.797" fill="#FFC6B2"/>
<path fill-rule="evenodd" clip-rule="evenodd" d="M341.597 269.542L350.86 245.213C350.86 245.213 349.431 233.802 331.149 229.711L320.793 243.911L341.597 269.542Z" fill="#FF7B5B"/>
<path fill-rule="evenodd" clip-rule="evenodd" d="M291.429 248.93C291.429 248.93 280.502 249.806 271.645 268.32C271.645 268.32 281.385 281.118 288.511 281.55C288.511 281.55 314.978 260.02 291.429 248.93" fill="#FF7B5B"/>
<path fill-rule="evenodd" clip-rule="evenodd" d="M321.454 468.487C321.454 468.487 305.68 499.143 303.836 493.467C301.994 487.789 302.603 474.155 303.591 472.209C304.583 470.262 311.032 461.663 311.032 461.663L321.454 468.487Z" fill="#FFC6B2"/>
<path fill-rule="evenodd" clip-rule="evenodd" d="M322.659 322.747L337.085 317.498C337.085 317.498 379.896 389.483 379.719 409.455C379.541 429.425 320.92 469.413 320.92 469.413L311.032 461.663C311.032 461.663 338.817 422.785 348.492 412.696C353.33 407.65 318.695 382.923 313.449 359.132C308.202 335.34 322.659 322.747 322.659 322.747" fill="#654287"/>
<path fill-rule="evenodd" clip-rule="evenodd" d="M235.926 452.429C235.926 452.429 206.419 473.127 207.646 467.318C208.877 461.504 216.305 449.638 218.168 448.318C220.034 447 230.108 442.034 230.108 442.034L235.926 452.429Z" fill="#FFC6B2"/>
<path fill-rule="evenodd" clip-rule="evenodd" d="M283.412 348.237L326.091 324.698C326.091 324.698 327.785 406.467 317.539 424.147C307.294 441.827 234.983 453.028 234.983 453.028L230.108 442.035C230.108 442.035 274.721 416.739 288.417 411.788C302.115 406.835 283.412 348.237 283.412 348.237" fill="#775298"/>
<path fill-rule="evenodd" clip-rule="evenodd" d="M308.83 308.596C308.83 308.596 277.404 319.185 283.412 348.238C289.419 377.289 299.431 382.736 299.431 382.736L317.454 354.593L335.547 317.738L317.454 315.553L308.83 308.596Z" fill="#775298"/>
<path fill-rule="evenodd" clip-rule="evenodd" d="M323.8 241.346C323.8 241.346 346.937 253.686 346.937 281.57C346.937 281.57 343.997 313.359 339.234 320.304C339.234 320.304 331.49 322.104 321.836 320.304C311.713 318.418 301.916 311.647 301.916 311.647L294.01 272.728L287.859 250.003L291.194 248.957L308.594 247.137C308.594 247.137 306.094 271.875 325.524 259.591C329.616 257.003 320.43 244.104 320.43 244.104L323.8 241.346Z" fill="#FF7B5B"/>
<path fill-rule="evenodd" clip-rule="evenodd" d="M337.962 135.978L386.472 162.909L413.759 113.857L368.281 89.8119L337.962 135.978Z" fill="white"/>
<path fill-rule="evenodd" clip-rule="evenodd" d="M405.447 370.786L440.141 350.347L411.478 302.732L379.763 322.303L405.447 370.786Z" fill="white"/>
<path fill-rule="evenodd" clip-rule="evenodd" d="M234.623 167.89C234.715 167.812 235.786 168.738 237.48 170.625C239.166 172.515 241.467 175.389 243.777 179.267C246.095 183.129 248.389 188.029 250.027 193.716C251.722 199.362 252.859 205.707 255.465 211.82C256.818 214.84 258.457 217.651 260.409 220.136C262.377 222.605 264.561 224.772 266.809 226.662C271.402 230.341 276.214 232.872 280.503 234.334C284.787 235.816 288.456 236.481 291.008 236.72C293.556 236.988 294.997 237.028 294.998 237.187C295.005 237.287 293.569 237.495 290.952 237.447C288.336 237.428 284.529 236.953 280.044 235.585C275.557 234.236 270.487 231.739 265.639 227.98C263.261 226.047 260.95 223.81 258.868 221.239C256.803 218.652 255.059 215.696 253.643 212.53C250.929 206.141 249.856 199.739 248.277 194.169C246.769 188.579 244.673 183.769 242.554 179.899C240.448 176.018 238.357 173.076 236.875 171.071C235.385 169.069 234.511 167.984 234.623 167.89" fill="#22343D"/>
<path fill-rule="evenodd" clip-rule="evenodd" d="M294.222 136.383C294.579 136.331 294.925 140.875 297.597 147.597C298.931 150.945 300.916 154.797 303.767 158.659C305.191 160.592 306.831 162.497 308.686 164.396C310.529 166.302 312.537 168.238 314.434 170.41C318.238 174.794 320.855 179.532 323.32 183.714C325.766 187.937 327.715 191.954 328.706 195.547C329.74 199.129 329.8 202.213 329.472 204.258C329.13 206.313 328.593 207.354 328.504 207.326C328.334 207.283 328.611 206.184 328.709 204.193C328.793 202.205 328.527 199.308 327.372 195.922C326.255 192.522 324.246 188.69 321.739 184.557C319.193 180.426 316.553 175.783 312.919 171.605C311.095 169.515 309.116 167.586 307.262 165.632C305.398 163.687 303.702 161.662 302.272 159.636C299.403 155.579 297.487 151.536 296.287 148.041C295.06 144.547 294.537 141.599 294.29 139.567C294.045 137.531 294.111 136.392 294.222 136.383" fill="#22343D"/>
<path fill-rule="evenodd" clip-rule="evenodd" d="M309.094 225.553C309.075 225.422 309.866 225.302 310.612 224.468C310.784 224.276 310.957 223.995 310.954 223.832C310.95 223.656 310.821 223.351 310.599 223.175C310.368 222.979 310.112 222.883 309.774 222.916C309.425 222.941 309 223.105 308.444 223.184C307.227 223.338 306.278 222.684 305.653 222.154C305.012 221.597 304.522 221.032 304.157 220.525C303.43 219.504 303.204 218.767 303.315 218.712C303.444 218.647 303.882 219.257 304.703 220.113C305.112 220.538 305.629 221.026 306.239 221.496C306.84 221.953 307.576 222.368 308.311 222.258C308.7 222.21 309.154 222.037 309.707 222.002C310.27 221.949 310.895 222.195 311.239 222.563C311.604 222.939 311.809 223.382 311.766 223.907C311.657 224.444 311.358 224.694 311.11 224.929C310.041 225.82 309.06 225.674 309.094 225.553" fill="#FF7B5B"/>
<path fill-rule="evenodd" clip-rule="evenodd" d="M314.827 226.321L305.51 229.545C305.51 229.545 313.415 236.126 314.827 226.321" fill="white"/>
<path fill-rule="evenodd" clip-rule="evenodd" d="M304.581 225.772C304.953 226.445 304.402 227.418 303.349 227.944C302.297 228.471 301.143 228.354 300.771 227.681C300.398 227.009 300.95 226.036 302.002 225.509C303.054 224.981 304.208 225.099 304.581 225.772" fill="#FFB2A0"/>
<path fill-rule="evenodd" clip-rule="evenodd" d="M315.625 220.382C315.93 221.085 315.286 222.003 314.188 222.435C313.088 222.869 311.95 222.649 311.645 221.946C311.34 221.243 311.984 220.324 313.084 219.893C314.182 219.461 315.32 219.679 315.625 220.382" fill="#FFB2A0"/>
<path fill-rule="evenodd" clip-rule="evenodd" d="M305.786 238.321C305.786 238.321 308.903 238.925 312.876 237.981C312.876 237.981 310.918 239.792 307.717 240.213C307.717 240.213 307 238.951 305.786 238.321" fill="#FFA192"/>
<path fill-rule="evenodd" clip-rule="evenodd" d="M308.97 218.391C309.32 218.673 309.363 219.172 309.066 219.504C308.77 219.837 308.247 219.878 307.896 219.596C307.547 219.315 307.504 218.816 307.801 218.482C308.097 218.15 308.621 218.109 308.97 218.391" fill="#22343D"/>
<path fill-rule="evenodd" clip-rule="evenodd" d="M302.71 221.819C303.059 222.101 303.102 222.6 302.806 222.932C302.511 223.265 301.987 223.305 301.636 223.023C301.287 222.741 301.244 222.244 301.54 221.91C301.836 221.578 302.36 221.537 302.71 221.819" fill="#22343D"/>
<path fill-rule="evenodd" clip-rule="evenodd" d="M309.007 215.093C308.924 215.346 308.147 215.337 307.292 215.583C306.43 215.804 305.776 216.205 305.564 216.032C305.345 215.887 305.852 214.999 307.022 214.683C308.188 214.362 309.112 214.858 309.007 215.093" fill="#22343D"/>
<path fill-rule="evenodd" clip-rule="evenodd" d="M298.192 221.309C297.983 221.162 298.311 220.314 299.107 219.467C299.912 218.6 300.943 218.311 301.05 218.553C301.166 218.788 300.537 219.337 299.831 220.099C299.116 220.858 298.418 221.471 298.192 221.309" fill="#22343D"/>
<path fill-rule="evenodd" clip-rule="evenodd" d="M294.678 227.893C294.678 227.893 291.69 225.504 290.255 227.665C288.822 229.826 296.71 230.964 296.71 230.964L294.678 227.893Z" fill="#FFC6B2"/>
<path fill-rule="evenodd" clip-rule="evenodd" d="M222.827 445.702C222.827 445.702 218.543 447.475 217.427 448.539C216.308 449.602 206.064 466.441 207.368 468.568C208.673 470.695 218.946 463.475 218.946 463.475C218.946 463.475 210.349 465.024 222.827 445.702" fill="#775298"/>
<path fill-rule="evenodd" clip-rule="evenodd" d="M306.423 467.97C306.423 467.97 303.381 471.1 302.911 472.537C302.442 473.972 301.601 493.414 303.796 494.72C305.99 496.026 311.986 485.298 311.986 485.298C311.986 485.298 304.817 490.643 306.423 468.015" fill="#775298"/>
</svg>
